<svg width="12" height="12" viewBox="0 0 12 12" fill="none" xmlns="http://www.w3.org/2000/svg">
<g clip-path="url(#clip0_1_2828)">
<path d="M10.242 1.75672C7.89852 -0.586069 4.09951 -0.585507 1.75672 1.75801C-0.586069 4.10152 -0.585507 7.90051 1.75801 10.2433C4.10152 12.5861 7.90051 12.5855 10.2433 10.242C10.8004 9.68477 11.2422 9.02327 11.5436 8.29527C11.8451 7.56727 12.0001 6.78703 12 5.9991C11.9999 5.21117 11.8446 4.43097 11.5429 3.70306C11.2413 2.97516 10.7992 2.31379 10.242 1.75672ZM9.0868 8.35794L9.086 8.35874V8.35674L8.78199 8.65874C8.58868 8.85449 8.34815 8.99709 8.08364 9.07276C7.81914 9.14843 7.53958 9.15463 7.27199 9.09074C6.72368 8.94397 6.20242 8.71035 5.72799 8.39874C5.28722 8.11705 4.87876 7.78774 4.50999 7.41673C4.1707 7.07991 3.86585 6.71008 3.59999 6.31273C3.30918 5.88519 3.07899 5.41943 2.91599 4.92873C2.82436 4.64609 2.81326 4.34352 2.88391 4.05492C2.95456 3.76632 3.10417 3.50309 3.31599 3.29474L3.67199 2.93874C3.77096 2.83932 3.93179 2.83897 4.03119 2.93795L4.03199 2.93874L5.15598 4.06274C5.2554 4.16171 5.25575 4.32254 5.15677 4.42194L5.15598 4.42274L4.49598 5.08274C4.3066 5.27005 4.28279 5.5677 4.43999 5.78274C4.6787 6.11035 4.94286 6.41864 5.22999 6.70475C5.55013 7.02627 5.89816 7.31875 6.26999 7.57876C6.48484 7.72862 6.77612 7.70335 6.96198 7.51876L7.59997 6.87076C7.69895 6.77134 7.85977 6.77099 7.95917 6.86996L7.95997 6.87076L9.08598 7.99876C9.18542 8.09771 9.18577 8.25852 9.0868 8.35794Z" fill="#F8E53B"/>
</g>
<defs>
<clipPath id="clip0_1_2828">
<rect width="12" height="12" fill="white"/>
</clipPath>
</defs>
</svg>
