<svg width="15" height="15" viewBox="0 0 15 15" fill="none" xmlns="http://www.w3.org/2000/svg">
<g clip-path="url(#clip0_10_2872)">
<circle cx="8" cy="7" r="5" fill="black"/>
<path d="M12.8025 2.19566C9.87315 -0.732831 5.12439 -0.732128 2.1959 2.19727C-0.732587 5.12666 -0.731883 9.87539 2.19751 12.8039C5.12691 15.7324 9.87564 15.7317 12.8041 12.8023C13.5005 12.1057 14.0528 11.2788 14.4296 10.3688C14.8063 9.45884 15.0002 8.48354 15 7.49863C14.9999 6.51371 14.8057 5.53847 14.4287 4.62859C14.0516 3.7187 13.4991 2.89199 12.8025 2.19566ZM11.3585 10.4472L11.3575 10.4482V10.4457L10.9775 10.8232C10.7358 11.0679 10.4352 11.2461 10.1046 11.3407C9.77392 11.4353 9.42448 11.443 9.08998 11.3632C8.4046 11.1797 7.75302 10.8877 7.15999 10.4982C6.60902 10.1461 6.09845 9.73443 5.63749 9.27067C5.21337 8.84965 4.83232 8.38736 4.49998 7.89067C4.13647 7.35625 3.84874 6.77405 3.64498 6.16067C3.53046 5.80736 3.51657 5.42915 3.60488 5.0684C3.6932 4.70765 3.88022 4.37862 4.14499 4.11818L4.58998 3.67318C4.7137 3.54891 4.91474 3.54847 5.03899 3.67219L5.03998 3.67318L6.44497 5.07818C6.56925 5.2019 6.56969 5.40293 6.44597 5.52718L6.44497 5.52818L5.61997 6.35318C5.38325 6.58732 5.35349 6.95939 5.54998 7.22818C5.84838 7.63769 6.17857 8.02305 6.53749 8.38069C6.93766 8.78259 7.3727 9.14819 7.83748 9.4732C8.10605 9.66053 8.47015 9.62895 8.70247 9.3982L9.49996 8.5882C9.62368 8.46393 9.82472 8.46349 9.94897 8.58721L9.94996 8.5882L11.3575 9.9982C11.4818 10.1219 11.4822 10.3229 11.3585 10.4472Z" fill="#F8E53B"/>
</g>
<defs>
<clipPath id="clip0_10_2872">
<rect width="15" height="15" fill="white"/>
</clipPath>
</defs>
</svg>
