<svg width="19" height="19" viewBox="0 0 19 19" fill="none" xmlns="http://www.w3.org/2000/svg">
<path fill-rule="evenodd" clip-rule="evenodd" d="M0.458609 16.7152C0.21624 16.9576 0.0800781 17.2863 0.0800781 17.6291C0.0800781 17.9718 0.21624 18.3006 0.458609 18.5429C0.700978 18.7853 1.0297 18.9215 1.37246 18.9215C1.71522 18.9215 2.04395 18.7853 2.28632 18.5429L9.50028 11.3264L16.7155 18.5416C16.9591 18.7769 17.2854 18.9071 17.6241 18.9042C17.9628 18.9012 18.2867 18.7654 18.5262 18.5259C18.7657 18.2864 18.9015 17.9625 18.9045 17.6238C18.9074 17.2851 18.7772 16.9588 18.5419 16.7152L11.3267 9.49998L18.5419 2.28473C18.7841 2.04236 18.9201 1.7137 18.92 1.37106C18.9199 1.02842 18.7837 0.699861 18.5413 0.457664C18.2989 0.215466 17.9703 0.0794688 17.6276 0.0795899C17.285 0.079711 16.9564 0.21594 16.7142 0.45831L9.50028 7.67356L2.28503 0.45831C2.04141 0.223022 1.71514 0.0928295 1.37647 0.0957725C1.03779 0.0987154 0.713828 0.234558 0.474343 0.474044C0.234857 0.713529 0.0990145 1.0375 0.0960716 1.37617C0.0931286 1.71484 0.223321 2.04112 0.458609 2.28473L7.67386 9.49998L0.458609 16.7152Z" fill="black"/>
</svg>
