<svg width="10" height="11" viewBox="0 0 10 11" fill="none" xmlns="http://www.w3.org/2000/svg">
<path fill-rule="evenodd" clip-rule="evenodd" d="M0.333554 9.22383C0.20846 9.34892 0.138184 9.51859 0.138184 9.6955C0.138184 9.87241 0.20846 10.0421 0.333554 10.1672C0.458648 10.2923 0.628312 10.3625 0.805221 10.3625C0.98213 10.3625 1.15179 10.2923 1.27689 10.1672L5.00022 6.4425L8.72422 10.1665C8.84996 10.2879 9.01836 10.3551 9.19316 10.3536C9.36795 10.3521 9.53516 10.282 9.65877 10.1584C9.78237 10.0348 9.85249 9.86756 9.854 9.69277C9.85552 9.51797 9.78833 9.34957 9.66689 9.22383L5.94289 5.49983L9.66689 1.77583C9.79189 1.65074 9.86209 1.48111 9.86202 1.30426C9.86196 1.12741 9.79165 0.957836 9.66656 0.83283C9.54146 0.707825 9.37183 0.637633 9.19499 0.637695C9.01814 0.637758 8.84856 0.70807 8.72355 0.833164L5.00022 4.55716L1.27622 0.833164C1.15049 0.711725 0.982085 0.644529 0.807287 0.646048C0.632489 0.647567 0.465281 0.717679 0.341675 0.841284C0.21807 0.96489 0.147957 1.1321 0.146438 1.3069C0.144919 1.48169 0.212116 1.6501 0.333554 1.77583L4.05755 5.49983L0.333554 9.22383Z" fill="black"/>
</svg>
