<svg width="21" height="19" viewBox="0 0 21 19" fill="none" xmlns="http://www.w3.org/2000/svg">
<path d="M20.3823 16.9119C20.7235 16.9119 21 17.1884 21 17.5295C21 17.8707 20.7235 18.1472 20.3823 18.1472H0.617654C0.276527 18.1472 0 17.8706 0 17.5295C0 17.1884 0.276527 16.9119 0.617654 16.9119H20.3823ZM3.08823 5.79422H8.64704C8.98816 5.79422 9.26469 6.07075 9.26469 6.41187V15.6766H2.47058V6.41187C2.47058 6.07075 2.7471 5.79422 3.08823 5.79422ZM12.3529 0.853027H17.9117C18.2529 0.853027 18.5294 1.12955 18.5294 1.47068V15.6766H11.7353V1.47068C11.7353 1.1296 12.0118 0.853027 12.3529 0.853027Z" fill="#F8E53B"/>
</svg>
