<svg width="24" height="24" viewBox="0 0 24 24" fill="none" xmlns="http://www.w3.org/2000/svg">
<path d="M20.0211 3H3.97856C3.5713 3.00032 3.17289 3.11885 2.83168 3.34119C2.49047 3.56353 2.22113 3.88013 2.05635 4.25257C1.89157 4.62501 1.83844 5.03727 1.9034 5.43931C1.96836 5.84136 2.14862 6.21591 2.42231 6.5175L9.37481 14.1638V21.375C9.37487 21.516 9.41466 21.6541 9.4896 21.7734C9.56455 21.8928 9.67163 21.9887 9.79856 22.05C9.9 22.1 10.0117 22.1257 10.1248 22.125C10.2953 22.1249 10.4606 22.0667 10.5936 21.96L11.9998 20.835L14.3436 18.96C14.4313 18.8898 14.5021 18.8008 14.5507 18.6995C14.5994 18.5982 14.6247 18.4874 14.6248 18.375V14.1638L21.5773 6.5175C21.851 6.21591 22.0313 5.84136 22.0962 5.43931C22.1612 5.03727 22.108 4.62501 21.9433 4.25257C21.7785 3.88013 21.5092 3.56353 21.1679 3.34119C20.8267 3.11885 20.4283 3.00032 20.0211 3Z" fill="black"/>
</svg>
