<svg width="9" height="13" viewBox="0 0 9 13" fill="none" xmlns="http://www.w3.org/2000/svg">
<g clip-path="url(#clip0_1_2780)">
<path fill-rule="evenodd" clip-rule="evenodd" d="M4.3709 1C6.0707 1 7.44865 2.37795 7.44865 4.07784C7.44865 5.49947 5.133 8.77084 4.3709 10.1186C3.60871 8.77084 1.29297 5.49947 1.29297 4.07784C1.29297 2.37804 2.67109 1 4.3709 1ZM4.3709 2.44141C5.26307 2.44141 5.98633 3.16474 5.98633 4.05692C5.98633 4.9491 5.26307 5.67235 4.3709 5.67235C3.47863 5.67235 2.75538 4.94919 2.75538 4.05692C2.75538 3.16466 3.47872 2.44149 4.37081 2.44149L4.3709 2.44141Z" fill="#F8E53B"/>
<path fill-rule="evenodd" clip-rule="evenodd" d="M5.55727 8.62891C6.92854 8.83299 7.85904 9.37114 7.85904 9.98057C7.85904 10.7744 6.2974 11.418 4.37092 11.418C2.44445 11.418 0.882812 10.7744 0.882812 9.98057C0.882812 9.37114 1.81322 8.83299 3.18458 8.62891C3.31844 8.84336 3.44825 9.0499 3.57059 9.24555C2.46273 9.34486 1.69061 9.64088 1.69061 9.98057C1.69061 10.406 2.89058 10.7508 4.37092 10.7508C5.85127 10.7508 7.05124 10.4059 7.05124 9.98057C7.05124 9.64097 6.27929 9.34495 5.17126 9.24555C5.29351 9.0499 5.42341 8.84327 5.55727 8.62891Z" fill="#F8E53B"/>
</g>
<defs>
<clipPath id="clip0_1_2780">
<rect width="9" height="13" fill="white"/>
</clipPath>
</defs>
</svg>
