<svg width="14" height="14" viewBox="0 0 14 14" fill="none" xmlns="http://www.w3.org/2000/svg">
<g clip-path="url(#clip0_10_2863)">
<path d="M7.00004 13.836C10.7754 13.836 13.836 10.7754 13.836 7.00004C13.836 3.22463 10.7754 0.164062 7.00004 0.164062C3.22463 0.164062 0.164062 3.22463 0.164062 7.00004C0.164062 10.7754 3.22463 13.836 7.00004 13.836Z" fill="#F8E53B"/>
<path fill-rule="evenodd" clip-rule="evenodd" d="M7.00035 2.21484C8.56185 2.21484 9.82769 3.48068 9.82769 5.04226C9.82769 6.34823 7.70044 9.35343 7.00035 10.5915C6.30018 9.35343 4.17285 6.34823 4.17285 5.04226C4.17285 3.48076 5.43885 2.21484 7.00035 2.21484ZM7.00035 3.53897C7.81994 3.53897 8.48435 4.20346 8.48435 5.02305C8.48435 5.84263 7.81994 6.50704 7.00035 6.50704C6.18068 6.50704 5.51628 5.84272 5.51628 5.02305C5.51628 4.20338 6.18076 3.53905 7.00027 3.53905L7.00035 3.53897Z" fill="black"/>
<path fill-rule="evenodd" clip-rule="evenodd" d="M8.09003 9.22314C9.34973 9.41062 10.2045 9.90499 10.2045 10.4648C10.2045 11.1941 8.76994 11.7853 7.00021 11.7853C5.23048 11.7853 3.7959 11.1941 3.7959 10.4648C3.7959 9.90499 4.65061 9.41062 5.91039 9.22314C6.03335 9.42015 6.15261 9.60989 6.265 9.78961C5.24727 9.88085 4.53798 10.1528 4.53798 10.4648C4.53798 10.8556 5.64031 11.1724 7.00021 11.1724C8.36011 11.1724 9.46244 10.8555 9.46244 10.4648C9.46244 10.1529 8.75331 9.88093 7.73542 9.78961C7.84773 9.60989 7.96707 9.42007 8.09003 9.22314Z" fill="black"/>
</g>
<defs>
<clipPath id="clip0_10_2863">
<rect width="14" height="14" fill="white"/>
</clipPath>
</defs>
</svg>
