<svg width="101" height="49" viewBox="0 0 101 49" fill="none" xmlns="http://www.w3.org/2000/svg">
<rect width="101" height="49" fill="#D9D9D9"/>
<path d="M41.3648 29H39.9408V22.016H37.3808C37.3168 23.0453 37.2208 23.936 37.0928 24.688C36.9648 25.4347 36.8101 26.072 36.6288 26.6C36.4528 27.1227 36.2528 27.5493 36.0288 27.88C35.8101 28.2053 35.5781 28.4587 35.3328 28.64C35.0928 28.8213 34.8421 28.944 34.5808 29.008C34.3248 29.072 34.0688 29.104 33.8128 29.104C33.3595 29.104 33.1328 29.032 33.1328 28.888V27.984H33.5488C33.7301 27.984 33.9141 27.952 34.1008 27.888C34.2875 27.824 34.4688 27.7013 34.6448 27.52C34.8261 27.3387 34.9995 27.0853 35.1648 26.76C35.3301 26.4293 35.4795 26.0027 35.6128 25.48C35.7515 24.952 35.8688 24.3147 35.9648 23.568C36.0661 22.816 36.1435 21.9253 36.1968 20.896H41.3648V29ZM47.0362 20.768C47.6282 20.768 48.1615 20.8667 48.6362 21.064C49.1109 21.2613 49.5162 21.5413 49.8522 21.904C50.1882 22.2667 50.4442 22.7067 50.6202 23.224C50.8015 23.736 50.8922 24.3093 50.8922 24.944C50.8922 25.584 50.8015 26.16 50.6202 26.672C50.4442 27.184 50.1882 27.6213 49.8522 27.984C49.5162 28.3467 49.1109 28.6267 48.6362 28.824C48.1615 29.016 47.6282 29.112 47.0362 29.112C46.4389 29.112 45.9002 29.016 45.4202 28.824C44.9455 28.6267 44.5402 28.3467 44.2042 27.984C43.8682 27.6213 43.6095 27.184 43.4282 26.672C43.2522 26.16 43.1642 25.584 43.1642 24.944C43.1642 24.3093 43.2522 23.736 43.4282 23.224C43.6095 22.7067 43.8682 22.2667 44.2042 21.904C44.5402 21.5413 44.9455 21.2613 45.4202 21.064C45.9002 20.8667 46.4389 20.768 47.0362 20.768ZM47.0362 28C47.8362 28 48.4335 27.7333 48.8282 27.2C49.2229 26.6613 49.4202 25.912 49.4202 24.952C49.4202 23.9867 49.2229 23.2347 48.8282 22.696C48.4335 22.1573 47.8362 21.888 47.0362 21.888C46.6309 21.888 46.2762 21.9573 45.9722 22.096C45.6735 22.2347 45.4229 22.4347 45.2202 22.696C45.0229 22.9573 44.8735 23.28 44.7722 23.664C44.6762 24.0427 44.6282 24.472 44.6282 24.952C44.6282 25.912 44.8255 26.6613 45.2202 27.2C45.6202 27.7333 46.2255 28 47.0362 28ZM57.9543 21.984H54.1303V29H52.6983V20.896H57.9543V21.984ZM62.3331 20.768C62.9251 20.768 63.4584 20.8667 63.9331 21.064C64.4077 21.2613 64.8131 21.5413 65.1491 21.904C65.4851 22.2667 65.7411 22.7067 65.9171 23.224C66.0984 23.736 66.1891 24.3093 66.1891 24.944C66.1891 25.584 66.0984 26.16 65.9171 26.672C65.7411 27.184 65.4851 27.6213 65.1491 27.984C64.8131 28.3467 64.4077 28.6267 63.9331 28.824C63.4584 29.016 62.9251 29.112 62.3331 29.112C61.7357 29.112 61.1971 29.016 60.7171 28.824C60.2424 28.6267 59.8371 28.3467 59.5011 27.984C59.1651 27.6213 58.9064 27.184 58.7251 26.672C58.5491 26.16 58.4611 25.584 58.4611 24.944C58.4611 24.3093 58.5491 23.736 58.7251 23.224C58.9064 22.7067 59.1651 22.2667 59.5011 21.904C59.8371 21.5413 60.2424 21.2613 60.7171 21.064C61.1971 20.8667 61.7357 20.768 62.3331 20.768ZM62.3331 28C63.1331 28 63.7304 27.7333 64.1251 27.2C64.5197 26.6613 64.7171 25.912 64.7171 24.952C64.7171 23.9867 64.5197 23.2347 64.1251 22.696C63.7304 22.1573 63.1331 21.888 62.3331 21.888C61.9277 21.888 61.5731 21.9573 61.2691 22.096C60.9704 22.2347 60.7197 22.4347 60.5171 22.696C60.3197 22.9573 60.1704 23.28 60.0691 23.664C59.9731 24.0427 59.9251 24.472 59.9251 24.952C59.9251 25.912 60.1224 26.6613 60.5171 27.2C60.9171 27.7333 61.5224 28 62.3331 28Z" fill="black"/>
</svg>
