<svg width="32" height="23" viewBox="0 0 32 23" fill="none" xmlns="http://www.w3.org/2000/svg">
<path d="M24 1.8998C24 1.01618 23.2836 0.299805 22.4 0.299805H1.6C0.716375 0.299805 0 1.01618 0 1.8998C0 2.78343 0.716375 3.4998 1.6 3.4998H22.4C23.2836 3.4998 24 2.78337 24 1.8998ZM1.6 9.8998H30.4C31.2836 9.8998 32 10.6162 32 11.4998C32 12.3834 31.2836 13.0998 30.4 13.0998H1.6C0.716375 13.0998 0 12.3834 0 11.4998C0 10.6162 0.716375 9.8998 1.6 9.8998ZM1.6 19.4998H16C16.8836 19.4998 17.6 20.2162 17.6 21.0998C17.6 21.9834 16.8836 22.6998 16 22.6998H1.6C0.716375 22.6998 0 21.9834 0 21.0998C0 20.2162 0.716375 19.4998 1.6 19.4998Z" fill="black"/>
</svg>
