<svg width="15" height="15" viewBox="0 0 15 15" fill="none" xmlns="http://www.w3.org/2000/svg">
<g clip-path="url(#clip0_10_2879)">
<circle cx="8" cy="7" r="6" fill="black"/>
<path fill-rule="evenodd" clip-rule="evenodd" d="M7.5 0C11.6421 0 15 3.35786 15 7.5C15 11.6421 11.6421 15 7.5 15C3.35786 15 0 11.6421 0 7.5C0 3.35786 3.35786 0 7.5 0ZM12.2607 10.4075V4.83334L9.47353 7.62038L12.2607 10.4075ZM3.33469 10.521H11.6655L9.11936 7.97487L8.14896 8.94513C8.1019 8.99205 8.03816 9.01839 7.97171 9.01837H7.02835C6.99544 9.0184 6.96284 9.01195 6.93243 8.99938C6.90201 8.98681 6.87437 8.96838 6.85107 8.94513L5.8807 7.97487L3.33457 10.521H3.33469ZM2.73926 4.83316V10.4076L5.52647 7.62038L2.73926 4.83316ZM11.9064 4.47899H3.09375L7.13215 8.51739H7.868L11.9064 4.47899Z" fill="#F8E53B"/>
</g>
<defs>
<clipPath id="clip0_10_2879">
<rect width="15" height="15" fill="white"/>
</clipPath>
</defs>
</svg>
