<svg width="13" height="12" viewBox="0 0 13 12" fill="none" xmlns="http://www.w3.org/2000/svg">
<path fill-rule="evenodd" clip-rule="evenodd" d="M6.33301 0C9.64672 0 12.333 2.68629 12.333 6C12.333 9.31371 9.64672 12 6.33301 12C3.0193 12 0.333008 9.31371 0.333008 6C0.333008 2.68629 3.0193 0 6.33301 0ZM10.1416 8.32596V3.86667L7.91183 6.0963L10.1416 8.32596ZM3.00076 8.41681H9.6654L7.62849 6.3799L6.85217 7.1561C6.81453 7.19364 6.76354 7.21471 6.71038 7.21469H5.95569C5.92936 7.21472 5.90328 7.20956 5.87895 7.19951C5.85462 7.18945 5.8325 7.1747 5.81387 7.1561L5.03757 6.3799L3.00066 8.41681H3.00076ZM2.52441 3.86653V8.32608L4.75419 6.0963L2.52441 3.86653ZM9.85815 3.5832H2.80801L6.03873 6.81391H6.62741L9.85815 3.5832Z" fill="#F8E53B"/>
</svg>
